  0
SECTION
  2
HEADER
  9
$ACADVER
  1
AC1009
  9
$INSBASE
 10
0.0
 20
0.0
 30
0.0
  9
$EXTMIN
 10
0.0
 20
0.0
 30
0.0
  9
$EXTMAX
 10
0.0
 20
0.0
 30
0.0
  0
ENDSEC
  0
SECTION
  2
TABLES
  0
TABLE
  2
VPORT
 70
0
  0
ENDTAB
  0
TABLE
  2
LTYPE
 70
1
  0
LTYPE
  2
CONTINUOUS
 70
0
  3
Solid line
 72
65
 73
0
 40
0.0
  0
ENDTAB
  0
TABLE
  2
LAYER
 70
1
  0
LAYER
  2
0
 70
64
 62
7
  6
continuous
  0
ENDTAB
  0
TABLE
  2
STYLE
 70
1
  0
STYLE
  2
STANDARD
 70
0
 40
0
 41
1.0
 50
0.0
 71
0
 42
1
 3
ARIAL.TTF
 4

  0
ENDTAB
  0
TABLE
  2
VIEW
 70
0
  0
ENDTAB
  0
ENDSEC
  0
SECTION
  2
BLOCKS
  0
BLOCK
  8
0
  2
SHAPE2DVIEW
 70
0
 10
0.0
 20
0.0
 30
0.0
  3
SHAPE2DVIEW
  0
LINE
  8
0
 62
0
 10
0.0
 20
0.0
 30
0.0
 11
80.0
 21
0.0
 31
0.0
  0
LINE
  8
0
 62
0
 10
0.0
 20
22.0
 30
0.0
 11
0.0
 21
0.0
 31
0.0
  0
LINE
  8
0
 62
0
 10
80.0
 20
0.0
 30
0.0
 11
80.0
 21
36.00000000000001
 31
0.0
  0
LINE
  8
0
 62
0
 10
0.0
 20
22.0
 30
0.0
 11
7.0
 21
22.0
 31
0.0
  0
LINE
  8
0
 62
0
 10
7.0
 20
22.0
 30
0.0
 11
7.0
 21
29.0
 31
0.0
  0
LINE
  8
0
 62
0
 10
7.0
 20
29.0
 30
0.0
 11
0.0
 21
29.0
 31
0.0
  0
LINE
  8
0
 62
0
 10
80.0
 20
36.00000000000001
 30
0.0
 11
0.0
 21
36.00000000000001
 31
0.0
  0
LINE
  8
0
 62
0
 10
0.0
 20
36.00000000000001
 30
0.0
 11
0.0
 21
29.0
 31
0.0
  0
LINE
  8
0
 62
0
 10
59.0
 20
23.5
 30
0.0
 11
65.0
 21
23.5
 31
0.0
  0
LINE
  8
0
 62
0
 10
59.0
 20
29.5
 30
0.0
 11
59.0
 21
23.5
 31
0.0
  0
LINE
  8
0
 62
0
 10
65.0
 20
23.5
 30
0.0
 11
65.0
 21
29.5
 31
0.0
  0
LINE
  8
0
 62
0
 10
65.0
 20
29.5
 30
0.0
 11
59.0
 21
29.5
 31
0.0
  0
CIRCLE
  8
0
 62
0
 10
76.83
 20
32.83
 30
0.0
 40
1.55
  0
LINE
  8
0
 62
0
 10
69.0
 20
14.0
 30
0.0
 11
75.0
 21
14.0
 31
0.0
  0
LINE
  8
0
 62
0
 10
69.0
 20
20.0
 30
0.0
 11
69.0
 21
14.0
 31
0.0
  0
LINE
  8
0
 62
0
 10
75.0
 20
14.0
 30
0.0
 11
75.0
 21
20.0
 31
0.0
  0
LINE
  8
0
 62
0
 10
75.0
 20
20.0
 30
0.0
 11
69.0
 21
20.0
 31
0.0
  0
LINE
  8
0
 62
0
 10
59.0
 20
14.0
 30
0.0
 11
65.0
 21
14.0
 31
0.0
  0
LINE
  8
0
 62
0
 10
59.0
 20
20.0
 30
0.0
 11
59.0
 21
14.0
 31
0.0
  0
LINE
  8
0
 62
0
 10
65.0
 20
14.0
 30
0.0
 11
65.0
 21
20.0
 31
0.0
  0
LINE
  8
0
 62
0
 10
65.0
 20
20.0
 30
0.0
 11
59.0
 21
20.0
 31
0.0
  0
LINE
  8
0
 62
0
 10
59.0
 20
4.5
 30
0.0
 11
65.0
 21
4.5
 31
0.0
  0
LINE
  8
0
 62
0
 10
59.0
 20
10.5
 30
0.0
 11
59.0
 21
4.5
 31
0.0
  0
LINE
  8
0
 62
0
 10
65.0
 20
4.5
 30
0.0
 11
65.0
 21
10.5
 31
0.0
  0
LINE
  8
0
 62
0
 10
65.0
 20
10.5
 30
0.0
 11
59.0
 21
10.5
 31
0.0
  0
CIRCLE
  8
0
 62
0
 10
76.83
 20
3.17
 30
0.0
 40
1.55
  0
LINE
  8
0
 62
0
 10
49.0
 20
14.0
 30
0.0
 11
55.0
 21
14.0
 31
0.0
  0
LINE
  8
0
 62
0
 10
55.0
 20
14.0
 30
0.0
 11
55.0
 21
20.0
 31
0.0
  0
LINE
  8
0
 62
0
 10
55.0
 20
20.0
 30
0.0
 11
49.0
 21
20.0
 31
0.0
  0
LINE
  8
0
 62
0
 10
49.0
 20
20.0
 30
0.0
 11
49.0
 21
14.0
 31
0.0
  0
CIRCLE
  8
0
 62
0
 10
3.17
 20
3.17
 30
0.0
 40
1.55
  0
CIRCLE
  8
0
 62
0
 10
3.17
 20
32.83
 30
0.0
 40
1.55
  0
ENDBLK
  0
ENDSEC
  0
SECTION
  2
ENTITIES
  0
INSERT
  2
SHAPE2DVIEW
  8
0
 62
0
 10
0.0
 20
0.0
 30
0.0
  0
ENDSEC
  0
EOF
